HIERARCHY
ROOT Hips
{
	OFFSET 0.000000 88.474243 0.000000
	CHANNELS 6 Xposition Yposition Zposition Zrotation Yrotation Xrotation 
	JOINT Hips_Spine
	{
		OFFSET 0.000000 0.000000 0.000000
		CHANNELS 3 Zrotation Yrotation Xrotation
		JOINT Spine
		{
			OFFSET 0.005100 8.711998 -0.691000
			CHANNELS 3 Zrotation Yrotation Xrotation
			JOINT Spine1
			{
				OFFSET -0.009200 8.660301 -1.275000
				CHANNELS 3 Zrotation Yrotation Xrotation
				JOINT Spine2
				{
					OFFSET 0.006300 9.852501 -1.857000
					CHANNELS 3 Zrotation Yrotation Xrotation
					JOINT Spine2_Neck
					{
						OFFSET 0.000000 0.000000 0.000000
						CHANNELS 3 Zrotation Yrotation Xrotation
						JOINT Neck
						{
							OFFSET 0.016300 11.420799 -0.263300
							CHANNELS 3 Zrotation Yrotation Xrotation
							End Site #name: Head
							{
								OFFSET -0.019200 9.262405 2.362500
							}
						}
					}
					JOINT Spine2_LeftShoulder
					{
						OFFSET 0.000000 0.000000 0.000000
						CHANNELS 3 Zrotation Yrotation Xrotation
						JOINT LeftShoulder
						{
							OFFSET 5.616900 6.732201 -0.345700
							CHANNELS 3 Zrotation Yrotation Xrotation
							JOINT LeftArm
							{
								OFFSET 10.664888 -0.183372 -2.440700
								CHANNELS 3 Zrotation Yrotation Xrotation
								JOINT LeftForeArm
								{
									OFFSET 27.459126 0.000000 0.000000
									CHANNELS 3 Zrotation Yrotation Xrotation
									End Site #name: LeftHand
									{
										OFFSET 21.306858 0.000000 0.000000
									}
								}
							}
						}
					}
					JOINT Spine2_RightShoulder
					{
						OFFSET 0.000000 0.000000 0.000000
						CHANNELS 3 Zrotation Yrotation Xrotation
						JOINT RightShoulder
						{
							OFFSET -5.580300 6.737503 -0.344400
							CHANNELS 3 Zrotation Yrotation Xrotation
							JOINT RightArm
							{
								OFFSET -10.679335 -0.188484 -2.383900
								CHANNELS 3 Zrotation Yrotation Xrotation
								JOINT RightForeArm
								{
									OFFSET -27.503529 0.000000 0.000000
									CHANNELS 3 Zrotation Yrotation Xrotation
									End Site #name: RightHand
									{
										OFFSET -21.306808 0.000000 0.000000
									}
								}
							}
						}
					}
				}
			}
		}
	}
	JOINT Hips_LeftUpLeg
	{
		OFFSET 0.000000 0.000000 0.000000
		CHANNELS 3 Zrotation Yrotation Xrotation
		JOINT LeftUpLeg
		{
			OFFSET 6.857700 -6.739601 0.312100
			CHANNELS 3 Zrotation Yrotation Xrotation
			JOINT LeftLeg
			{
				OFFSET -0.367590 -34.731552 -4.572400
				CHANNELS 3 Zrotation Yrotation Xrotation
				End Site #name: LeftFoot
				{
					OFFSET 0.367590 -34.656704 -6.067400
				}
			}
		}
	}
	JOINT Hips_RightUpLeg
	{
		OFFSET 0.000000 0.000000 0.000000
		CHANNELS 3 Zrotation Yrotation Xrotation
		JOINT RightUpLeg
		{
			OFFSET -6.876100 -6.733299 0.301000
			CHANNELS 3 Zrotation Yrotation Xrotation
			JOINT RightLeg
			{
				OFFSET 0.347353 -34.795158 -4.515900
				CHANNELS 3 Zrotation Yrotation Xrotation
				End Site #name: RightFoot
				{
					OFFSET -0.347353 -34.589367 -6.070300
				}
			}
		}
	}
}
MOTION
Frames: 6
Frame Time: 0.041667
-0.072083 0.051984 -0.007098 -3.766692 1.023228 -3.323399 -0.000000 0.000000 0.000000 -0.685846 0.824164 5.690719 -1.603636 1.351128 9.960324 0.000000 0.000000 0.000000 -1.890694 1.197031 9.420531 -0.914306 -3.741221 3.767152 -1.939124 1.163291 10.068161 -0.907409 -0.967593 0.233732 -68.733459 -24.708453 19.649288 167.719430 -86.766615 -168.051587 -1.745462 1.794462 10.783091 -4.925703 -0.417901 1.219747 77.958455 -3.187378 5.091661 174.559776 83.243322 176.521376 0.000000 -0.000000 0.000000 7.292040 1.435034 -18.998352 -1.324420 0.423444 33.228223 0.000000 0.000000 -0.000000 -4.367837 -2.333775 -15.200083 -0.191267 -2.114559 26.822400 
0.018072 0.077862 0.139323 -4.816946 -3.095859 -2.626026 -0.000000 0.000000 0.000000 -0.756589 0.388697 5.474486 -2.030456 1.385926 10.254513 0.000000 0.000000 0.000000 -1.812210 1.367029 10.214485 -1.808041 -4.121556 5.302949 -2.008580 1.484143 10.536356 0.584133 1.269493 -0.273879 -68.626541 -22.974489 31.160546 178.941604 -83.183938 -179.072033 -1.896052 1.225184 10.107725 -5.314813 -2.555658 0.657896 83.737165 -8.052175 5.070177 -171.875316 87.066868 -172.017670 0.000000 -0.000000 0.000000 7.406276 0.226580 -22.511842 -0.704867 0.869392 32.388674 0.000000 0.000000 -0.000000 -3.183923 -3.446206 -16.362754 0.999786 -0.629822 26.554790 
0.185274 0.086522 0.159202 -4.694658 -6.091036 -2.566389 -0.000000 -0.000000 0.000000 -0.737410 0.418912 5.232093 -2.205643 1.387238 10.293085 0.000000 0.000000 0.000000 -2.128454 1.594179 10.862965 -1.674473 -3.660905 4.636568 -1.880131 1.579056 10.443835 0.808098 0.702525 -0.220190 -70.188442 -18.421542 33.685444 -178.368446 -82.164967 178.232883 -2.050002 1.419665 10.098726 -4.100691 -2.163626 0.795619 82.781167 -7.849542 8.499828 -170.648279 86.810277 -170.856868 0.000000 -0.000000 0.000000 7.851182 1.077552 -22.968445 -0.809706 0.493148 34.129075 0.000000 0.000000 -0.000000 -2.693951 -3.472256 -16.816966 0.697138 -0.931990 25.787668 
0.288727 0.057123 0.152105 -4.447306 -7.067032 -2.539143 -0.000000 -0.000000 0.000000 -0.621747 0.579802 4.953541 -2.083514 1.550547 10.235960 0.000000 0.000000 0.000000 -1.980441 1.680752 10.366891 -1.750631 -3.868171 5.063100 -1.922004 1.643210 10.353879 1.486713 0.441061 -0.020869 -70.647497 -17.446373 33.122735 -178.167913 -82.818336 178.055523 -2.096294 1.572501 10.022288 -4.122879 -1.463146 1.171311 80.805462 -6.952149 10.021171 -169.765845 85.320364 -170.230457 0.000000 -0.000000 0.000000 7.609487 1.250011 -23.263155 -1.046548 0.549757 34.687455 0.000000 0.000000 0.000000 -2.148198 -3.125700 -17.375532 0.576514 -0.618836 26.279568 
0.345146 0.044456 0.196487 -4.494403 -6.583947 -2.536476 -0.000000 -0.000000 0.000000 -0.561320 0.676942 4.980894 -1.973130 1.558426 10.005742 0.000000 0.000000 0.000000 -1.918114 1.628891 9.953367 -1.620209 -3.945158 5.163970 -1.951071 1.624449 10.107782 1.683779 0.333459 0.148966 -70.986321 -18.094302 32.133116 -176.238751 -84.372213 176.411500 -2.081703 1.579781 10.045031 -4.184328 -1.975968 1.370965 80.237169 -7.820636 8.912219 -166.905556 85.279454 -167.521591 0.000000 -0.000000 0.000000 7.080715 1.242618 -22.747223 -1.213738 0.640249 34.252544 0.000000 -0.000000 0.000000 -2.114824 -3.025944 -17.563241 0.557790 -0.458374 26.184284 
0.414950 0.037534 0.258874 -4.626492 -5.761374 -2.659428 -0.000000 -0.000000 0.000000 -0.536691 0.740636 5.022489 -1.864065 1.482281 9.738182 0.000000 0.000000 0.000000 -1.861689 1.512211 9.741276 -1.407018 -3.736264 5.092894 -1.932746 1.542838 9.838113 1.682867 0.453233 0.203428 -71.259744 -18.669234 30.887135 -173.517458 -84.933702 173.874299 -2.054927 1.537024 10.016473 -4.541541 -2.437212 1.383043 80.898267 -8.225170 7.541045 -166.930711 85.255881 -167.498736 0.000000 0.000000 0.000000 6.732721 1.227247 -22.227919 -1.255887 0.749693 33.847953 -0.000000 -0.000000 0.000000 -2.456304 -3.074897 -17.236156 0.438878 -0.620271 25.728349 
